Patient4_TMGait_0pt4_03_left_12_EMG.mot
version=1
nRows=19
nColumns=33
inDegrees=no
endheader
time	1LAddLong	2LGlutMax	3LGlutMed	4LIliopsoas	5LSemiMemb	6LBicFemLong	7LRecFem	8LVastMed	9LVastLat	10LGasMed	11LTibAnt	12lTibPost	13LPeroneusLong	14LSol	15LExtDigLong	16LFlexDigLong	17RAddLong	18RGlutMax	19RGlutMed	20RIliopsoas	21RSemiMemb	22RBicFemLong	23RRecFem	24RVastMed	25RVastLat	26RGasMed	27RTibAnt	28RTibPost	29RPeroneusLong	30RSol	31RExtDigLong	32RFlexDigLong
16.823	0.009155	0.10468	0.010529	0.018768	-0.010071	-0.082703	-0.035095	0.02243	0.073242	-0.029144	0.046844	-0.021667	-0.016022	-0.077667	0.023956	0.002899	-0.002899	0.18387	0.73456	-0.27618	0.00824	0.076141	-0.014038	-0.020599	0.029297	0.019073	0.021973	-0.028076	-0.25604	-0.10971	0.004578	-0.007935
16.824	0.007629	0.079498	-0.012207	0.013428	0.004578	-0.088501	-0.02655	-0.00824	0.066376	-0.056763	0.084686	-0.013275	-0.019226	-0.054779	-0.061035	-0.000153	-0.003815	0.10086	0.40787	-0.10056	-0.01236	0.049591	-0.091705	-0.074005	0.025787	-0.023346	0.046692	0.019379	-0.057526	-0.024261	-0.003662	-0.009766
16.825	0.003204	0.084991	-0.045624	0.004578	-0.01709	-0.086365	-0.040741	0.005188	0.073242	-0.058594	0.14252	-0.015106	-0.028534	-0.022125	0.18585	0.016632	0.007172	0.06897	-0.18295	0.13458	0.006409	-0.003052	0.16678	-0.10605	-0.10788	-0.069733	0.030518	0.036774	0.63522	0.081635	-0.001373	-0.007477
16.826	0.012817	0.079498	-0.091095	0.009766	-0.00473	-0.093842	-0.0354	0.002594	0.070953	-0.081177	0.11154	-0.017242	-0.052185	-0.003357	0.040131	0.018616	0.018463	0.034637	-0.26794	0.22537	-0.018311	-0.038147	0.17853	-0.11398	-0.14786	0.007782	-0.005493	0.001831	0.56397	0.036011	-0.002136	0.002136
16.827	0.018616	0.074463	-0.10605	-0.015717	0.055695	-0.091248	-0.026703	-0.00061	0.06134	-0.076294	-0.059814	-0.011292	-0.041504	0.032501	-0.049744	0.001831	0.037689	0.074768	0.11688	0.12451	-0.026398	-0.024109	0.15213	-0.091705	-0.12283	0.021973	-0.076294	-0.014801	-0.60196	-0.086975	-0.004578	0.00946
16.828	0.013123	0.069122	-0.099182	-0.004272	0.028992	-0.063934	-0.016937	0.001221	0.074768	-0.048065	-0.023651	-0.011444	-0.024567	-0.015869	-0.079498	0.006104	0.030975	0.14923	0.64392	-0.018616	-0.007782	-0.021667	0.12878	-0.015564	-0.19486	-0.011292	-0.11353	-0.010376	-0.8049	-0.058441	-0.002899	-0.000916
16.829	0.009918	0.073547	-0.043488	0.006256	0.002441	-0.07843	-0.027618	0.002441	0.075226	-0.040588	0.00412	-0.015259	-0.006866	-0.089874	-0.18753	0.00351	0.011597	0.11978	-0.38254	-0.023346	0.11627	-0.039825	-0.057068	0.016479	-0.2092	-0.015411	-0.058746	-0.008392	-0.69473	-0.004883	-0.003052	0.005188
16.83	0.007629	0.076752	-0.077209	0.01709	-0.005951	-0.066376	0	0.003204	0.06546	-0.031738	-0.028229	-0.02121	-0.020142	-0.103	-0.1973	-0.003357	-0.009766	0.14435	-0.41	0.072174	0.036621	-0.013123	-0.41458	0.009003	-0.037537	-0.010529	-0.048065	-0.004425	1.2451	-0.031891	-0.002289	-0.004272
16.831	-0.003357	0.058899	-0.054779	0.020905	-0.002594	-0.081329	-0.026703	0.00473	0.066223	-0.028839	0.014954	-0.01297	-0.03418	-0.14572	-0.032654	0.008545	-0.019684	0.068665	0.009003	0.19852	0.046082	-0.011292	-0.21469	0.001831	0.030975	-0.018005	-0.041351	-0.003815	0.82352	0.1445	-0.003357	0.002899
16.832	-0.004578	0.043182	0.004883	0.007019	0.008698	-0.085297	-0.02243	0.002289	0.060883	-0.016022	0.037384	-0.010986	-0.022125	-0.17151	0.19928	-0.000763	-0.016174	0.012817	0.044556	0.18112	-0.019379	-0.003357	0.085449	-0.04364	-0.014038	-0.007477	0.022278	-0.022278	-0.014038	0.12253	0.000305	-0.003815
16.833	-0.005341	0.056152	-0.03952	0.013885	0.046082	-0.064392	0.005493	0.002594	0.061798	-0.043335	0.005035	-0.015717	-0.010071	-0.13046	0.23682	0.009003	0.005493	-0.026093	-0.52307	0.083313	-0.10605	0.021057	-0.013275	-0.063171	-0.015564	-0.005798	0.047455	0.034332	-0.14832	-0.022278	0.000305	-0.005951
16.834	-0.001373	0.026245	0.004578	0.002899	0.042877	-0.074921	-0.00473	0.005798	0.06073	-0.056458	0.002899	-0.016937	0.00824	-0.10407	0.071259	0.00061	0.002136	0.014954	-0.068207	0.072784	-0.10956	0.038452	-0.2002	-0.17502	0.007019	-0.010223	0.036774	0.015411	-0.34225	-0.054779	-0.00412	0.001373
16.835	-0.007782	0.046234	0.028687	0.013123	-0.035095	-0.079193	-0.016174	-0.005188	0.067902	-0.032806	0.037384	-0.016785	-0.042572	-0.089569	-0.23529	-0.010071	0.001068	0.014954	0.35523	-0.018311	-0.042267	0.063629	-0.087433	-0.071411	-0.012207	-0.006256	0.018616	-0.000763	-0.40024	-0.049133	-0.001984	-0.007019
16.836	-0.038147	0.042877	0.01236	0.002594	-0.086975	-0.084229	-0.008392	-0.002747	0.071411	-0.034485	-0.1062	-0.010071	-0.060883	-0.04364	-0.10452	-0.002594	-0.005798	0.049744	0.5481	-0.11307	0.13428	0.046539	0.030365	0.052032	-0.02182	0.005035	0.034637	-0.005798	-0.058594	-0.020752	0.002289	-0.00946
16.837	-0.011902	0.062866	-0.037994	-0.007477	-0.062408	-0.1033	-0.010529	-0.011444	0.065155	-0.053101	-0.16678	-0.015717	-0.068207	-0.098114	-0.19089	-0.006104	-0.001831	0.047302	0.85327	-0.093994	0.24048	0.007019	0.005035	0.12009	0.053864	0.006561	-0.007935	-0.004883	0.76218	-0.016327	-0.003204	-0.006104
16.838	0.007782	0.048828	-0.056458	-0.001831	0.014954	-0.063171	0.001221	-0.002594	0.067139	-0.030823	-0.12009	-0.012054	-0.067139	-0.12909	-0.31708	-0.016632	0.00412	0.021057	0.65277	-0.12665	0.17349	-0.021362	0.027161	0.13672	0.071259	0.007782	-0.11871	-0.004883	0.75684	0.011902	-0.001526	-0.013275
16.839	0.009155	0.043793	-0.061493	0.006866	0.082703	-0.054169	0.002747	0.009918	0.077362	-0.036926	-0.033875	-0.012817	-0.030823	-0.1535	-0.23575	-0.010529	-0.006409	0.034637	-0.43915	-0.11444	0.099182	0.004883	0.06134	0.13107	0.032806	-0.024719	-0.11551	-0.001526	0.066833	-0.007019	-0.001068	-0.009308
16.84	0.006104	0.052643	0.050964	-0.00412	0.068054	-0.038605	-0.00473	0.003662	0.082703	-0.066223	0.14328	-0.013275	0.005493	-0.13321	0.082855	0.003052	0.001831	-0.061188	-0.99777	0.024719	0.10422	-0.000305	0.010376	0.11047	0.018158	-0.032654	-0.014648	-0.001678	-0.60547	0.04303	0.00061	-0.005035
16.841	0.008698	-0.029602	0.06012	0.003204	0.04303	0.003052	-0.016327	0.003052	0.094604	-0.09613	0.12848	-0.01709	0.002136	-0.083008	0.215	0.006256	-0.010071	-0.17319	-0.81665	-0.040741	0.009003	0.032501	-0.068054	0.032196	0.023499	-0.014496	-0.072937	0.000305	-0.39948	0.008087	-0.000916	-0.003357
